<?xml version="1.0" encoding="utf-8"?>
<!-- Generator: Adobe Illustrator 24.0.0, SVG Export Plug-In . SVG Version: 6.00 Build 0)  -->
<svg version="1.1" xmlns="http://www.w3.org/2000/svg" xmlns:xlink="http://www.w3.org/1999/xlink" x="0px" y="0px"
	 viewBox="0 0 64 64" style="enable-background:new 0 0 64 64;" xml:space="preserve">
<style type="text/css">
	.st0{fill:#023D6B;}
	.st1{fill:#FFFFFF;}
</style>
<g id="Ebene_2">
	<path class="st0" d="M0,0v64h64V0H0z M4,60V4h40.7L29.7,7.1v48.4L47.9,60H4z"/>
	<path class="st1" d="M54.7,13.4c0.9,0,1.6,0.7,1.6,1.6v20.8c0,9.2-5.6,14.9-13.8,14.9c-8.2,0-13.7-5.7-13.7-14.9V15.1
		c0-0.9,0.7-1.6,1.6-1.6h4.3c0.9,0,1.6,0.7,1.6,1.6v20.8c0,5.4,2.5,7.7,6.2,7.7s6.3-2.3,6.3-7.7V15.1c0-0.9,0.7-1.6,1.6-1.6H54.7z"
		/>
	<g>
		<path class="st0" d="M28.4,18.2c0.9,0,1.6,0.7,1.6,1.6v23.7c0,7.6-5.9,12-11.9,12c-5.9,0-11.7-4.4-11.7-12v-0.4
			c0-0.9,0.7-1.6,1.6-1.6h4.1c0.9,0,1.6,0.7,1.6,1.6v0.5c0,3.3,2.5,4.8,4.4,4.8s4.4-1.5,4.4-4.8V19.8c0-0.9,0.7-1.6,1.6-1.6H28.4z"
			/>
	</g>
</g>
<g id="Ebene_1">
</g>
</svg>
