<svg xmlns="http://www.w3.org/2000/svg" alt="LLview logo" version="1.1" viewBox="0 0 940 555" width="72" height="32.6094" style="fill-rule:evenodd;" xmlns:xlink="http://www.w3.org/1999/xlink">
    <g><path style="opacity:0.991" fill="#ffffff" d="M 20.5,14.5 C 39.8333,14.5 59.1667,14.5 78.5,14.5C 78.5,140.833 78.5,267.167 78.5,393.5C 90.8333,393.5 103.167,393.5 115.5,393.5C 115.5,297.167 115.5,200.833 115.5,104.5C 134.833,104.5 154.167,104.5 173.5,104.5C 173.5,200.833 173.5,297.167 173.5,393.5C 212.167,393.5 250.833,393.5 289.5,393.5C 289.5,410.833 289.5,428.167 289.5,445.5C 250.833,445.5 212.167,445.5 173.5,445.5C 173.5,457.833 173.5,470.167 173.5,482.5C 243.833,482.5 314.167,482.5 384.5,482.5C 384.5,500.167 384.5,517.833 384.5,535.5C 294.833,535.5 205.167,535.5 115.5,535.5C 115.5,505.5 115.5,475.5 115.5,445.5C 83.5,445.5 51.5,445.5 19.5,445.5C 19.1684,301.763 19.5017,158.097 20.5,14.5 Z"/></g>
    <g><path style="opacity:0.977" fill="#ffffff" d="M 212.5,171.5 C 224.186,171.168 235.852,171.501 247.5,172.5C 265.374,220.623 282.54,268.957 299,317.5C 316.076,268.771 333.242,220.105 350.5,171.5C 362.186,171.168 373.852,171.501 385.5,172.5C 362.098,234.539 338.598,296.539 315,358.5C 304.333,359.833 293.667,359.833 283,358.5C 259.195,296.248 235.695,233.914 212.5,171.5 Z"/></g>
    <g><path style="opacity:0.973" fill="#ffffff" d="M 411.5,171.5 C 422.833,171.5 434.167,171.5 445.5,171.5C 445.5,234.167 445.5,296.833 445.5,359.5C 434.167,359.5 422.833,359.5 411.5,359.5C 411.5,296.833 411.5,234.167 411.5,171.5 Z"/></g>
    <g><path style="opacity:0.951" fill="#ffffff" d="M 411.5,100.5 C 422.833,100.5 434.167,100.5 445.5,100.5C 445.5,113.167 445.5,125.833 445.5,138.5C 434.167,138.5 422.833,138.5 411.5,138.5C 411.5,125.833 411.5,113.167 411.5,100.5 Z"/></g>
    <g><path style="opacity:0.98" fill="#ffffff" d="M 556.5,167.5 C 591.851,163.538 619.684,175.871 640,204.5C 651.674,226.366 656.507,249.699 654.5,274.5C 608.167,274.5 561.833,274.5 515.5,274.5C 515.803,293.927 522.803,310.427 536.5,324C 555.742,338.52 576.075,340.187 597.5,329C 607.888,321.273 615.222,311.273 619.5,299C 630.539,299.254 641.539,300.254 652.5,302C 647.664,328.535 632.664,347.201 607.5,358C 590.543,363.205 573.21,364.872 555.5,363C 511.43,355.26 486.93,329.093 482,284.5C 479.584,262.286 481.918,240.619 489,219.5C 501.805,189.523 524.305,172.189 556.5,167.5 Z M 567.5,194.5 C 599.44,197.107 616.773,214.44 619.5,246.5C 585.5,246.5 551.5,246.5 517.5,246.5C 520.727,215.929 537.394,198.596 567.5,194.5 Z"/></g>
    <g><path style="opacity:0.977" fill="#ffffff" d="M 669.5,171.5 C 680.853,171.168 692.186,171.501 703.5,172.5C 716.821,220.117 729.988,267.784 743,315.5C 756.148,267.573 768.982,219.573 781.5,171.5C 793.167,171.5 804.833,171.5 816.5,171.5C 827.764,218.449 839.931,265.115 853,311.5C 866.679,265.115 880.513,218.782 894.5,172.5C 905.146,171.501 915.813,171.168 926.5,171.5C 907.958,233.66 888.791,295.66 869,357.5C 857.419,359.466 845.586,360.133 833.5,359.5C 821.162,312.982 809.329,266.315 798,219.5C 785.315,266.051 773.148,312.717 761.5,359.5C 749.586,359.821 737.753,359.488 726,358.5C 706.45,296.352 687.616,234.019 669.5,171.5 Z"/></g>
</svg>