<svg alt="LLview logo" xmlns="http://www.w3.org/2000/svg" width="72.05229751244" height="32.5938" viewBox="0 0 1333 603" version="1.1">
  <path d="M 221 261.485 L 221 477 268.500 477 L 316 477 316 522 L 316 567 450.500 567 L 585 567 585 540.500 L 585 514 479.500 514 L 374 514 374 495.500 L 374 477 432 477 L 490 477 490 451 L 490 425 432 425 L 374 425 374 280.500 L 374 136 345 136 L 316 136 316 280.500 L 316 425 297.503 425 L 279.005 425 278.753 235.750 L 278.500 46.500 249.750 46.235 L 221 45.969 221 261.485 M 612.444 133.285 C 612.173 133.992, 612.074 142.429, 612.225 152.035 L 612.500 169.500 628.750 169.775 L 645 170.050 645 151.025 L 645 132 628.969 132 C 616.832 132, 612.817 132.312, 612.444 133.285 M 756 199.677 C 745.987 201.296, 738.118 203.755, 729.383 207.995 C 721.410 211.865, 717.524 214.545, 711.041 220.643 C 695.017 235.718, 686.524 252.959, 683.035 277.500 C 681.539 288.018, 681.801 311.222, 683.535 321.916 C 689.387 358.002, 710.050 382.351, 742.741 391.685 C 754.800 395.128, 778.299 396.024, 791.475 393.542 C 819.259 388.308, 839.189 372.336, 849.811 346.790 C 854.428 335.687, 854.659 334.187, 851.847 333.581 C 848.610 332.884, 824.883 330, 822.380 330 C 820.810 330, 819.287 332.131, 815.714 339.329 C 804.510 361.899, 783.208 372.145, 759.240 366.494 C 735.442 360.884, 719.754 340.841, 716.390 311.750 L 715.725 306 785.508 306 L 855.291 306 854.736 291.250 C 853.895 268.867, 849.563 252.029, 840.833 237.215 C 836.067 229.127, 821.879 215.109, 813.500 210.209 C 805.499 205.530, 794.453 201.600, 785 200.068 C 778.786 199.061, 761.267 198.825, 756 199.677 M 413 203.510 C 413 203.891, 479.644 379.413, 483.533 389.275 C 484.168 390.885, 485.667 391.024, 499.688 390.775 L 515.144 390.500 550.452 297.173 C 573.452 236.379, 585.352 203.689, 584.590 203.396 C 583.946 203.149, 576.296 203.071, 567.588 203.224 L 551.757 203.500 531.834 258 C 520.876 287.975, 509.048 320.825, 505.550 331 C 502.053 341.175, 498.936 348.825, 498.625 348 C 498.314 347.175, 495.650 339.075, 492.705 330 C 489.760 320.925, 478.428 288.637, 467.521 258.250 L 447.692 203 430.346 203 C 420.806 203, 413 203.229, 413 203.510 M 612.667 203.667 C 612.300 204.033, 612 246.333, 612 297.667 L 612 391 628.500 391 L 645 391 645 297 L 645 203 629.167 203 C 620.458 203, 613.033 203.300, 612.667 203.667 M 870.034 204.250 C 870.053 204.938, 882.821 247.125, 898.409 298 L 926.749 390.500 944.069 390.500 L 961.389 390.500 979.625 321.153 C 989.654 283.012, 998.022 251.644, 998.220 251.447 C 998.417 251.249, 1000.258 258.380, 1002.309 267.294 C 1004.361 276.207, 1012.449 307.575, 1020.282 337 L 1034.524 390.500 1051.677 390.773 L 1068.830 391.046 1069.870 387.773 C 1079.035 358.942, 1127 204.577, 1127 203.912 C 1127 203.401, 1120.003 203, 1111.075 203 L 1095.150 203 1093.624 208.250 C 1079.257 257.649, 1053.379 343.702, 1053.001 343.329 C 1052.727 343.058, 1044.402 311.485, 1034.501 273.168 L 1016.500 203.500 999.526 203.500 L 982.552 203.500 968.814 254 C 961.258 281.775, 952.736 313.725, 949.877 325 C 947.018 336.275, 944.392 345.837, 944.041 346.248 C 943.583 346.786, 911.868 234.117, 904.353 205.250 C 903.774 203.029, 903.552 203, 886.883 203 C 874.025 203, 870.008 203.298, 870.034 204.250 M 760 227.062 C 745.943 229.472, 730.817 240.883, 724.268 254.018 C 720.730 261.113, 718 270.562, 718 275.710 L 718 279 769.072 279 L 820.144 279 819.437 273.250 C 818.458 265.294, 814.457 253.417, 810.865 247.803 C 800.901 232.231, 779.870 223.655, 760 227.062" stroke="none" fill="#ffffff" fill-rule="evenodd"/>
</svg>