<?xml version="1.0" encoding="utf-8"?>
<!-- Generator: Adobe Illustrator 26.2.1, SVG Export Plug-In . SVG Version: 6.00 Build 0)  -->
<svg version="1.1" id="Ebene_1" xmlns="http://www.w3.org/2000/svg" xmlns:xlink="http://www.w3.org/1999/xlink" x="0px" y="0px"
	 viewBox="0 0 141.73 141.73" style="enable-background:new 0 0 141.73 141.73;" xml:space="preserve">
<style type="text/css">
	.st0{fill:#808080;}
	.st1{fill:#B9D25F;stroke:#023D6B;stroke-width:2;stroke-miterlimit:10;}
	.st2{fill:#FAEB5A;stroke:#023D6B;stroke-width:2;stroke-miterlimit:10;}
	.st3{fill:#FAB45A;stroke:#023D6B;stroke-width:2;stroke-miterlimit:10;}
	.st4{fill:#FAB45A;}
	.st5{fill:#FF1D25;}
	.st6{fill:#8C0000;}
	.st7{fill:#FFFFFF;}
	.st8{fill:none;stroke:#7AC943;stroke-width:7;stroke-linecap:round;stroke-linejoin:round;stroke-miterlimit:10;}
	.st9{fill:#7AC943;}
	.st10{fill:#7AC943;stroke:#7AC943;stroke-miterlimit:10;}
	.st11{fill:#B9D25F;}
</style>
<g>
	<path class="st0" d="M121.89,46.35H19.84c-3.13,0-5.67-2.54-5.67-5.67V23.67c0-3.13,2.54-5.67,5.67-5.67h102.05
		c3.13,0,5.67,2.54,5.67,5.67v17.01C127.56,43.81,125.02,46.35,121.89,46.35z"/>
	<path class="st0" d="M77.23,56.69c-9.29,6.44-15.79,16.61-17.34,28.35H19.84c-3.13,0-5.67-2.54-5.67-5.67V62.36
		c0-3.13,2.54-5.67,5.67-5.67H77.23z"/>
	<path class="st0" d="M76.47,123.73H19.84c-3.13,0-5.67-2.54-5.67-5.67v-17.01c0-3.13,2.54-5.66,5.67-5.66h39.98
		C61.21,107.03,67.45,117.17,76.47,123.73z"/>
	<g>
		<path class="st7" d="M52.85,35.01H24.57c-0.78,0-1.42-0.63-1.42-1.42v-2.83c0-0.78,0.63-1.42,1.42-1.42h28.28
			c0.78,0,1.42,0.63,1.42,1.42v2.83C54.27,34.37,53.63,35.01,52.85,35.01z"/>
	</g>
	<g>
		<path class="st7" d="M52.85,75.01H24.57c-0.78,0-1.42-0.63-1.42-1.42v-2.83c0-0.78,0.63-1.42,1.42-1.42h28.28
			c0.78,0,1.42,0.63,1.42,1.42v2.83C54.27,74.37,53.63,75.01,52.85,75.01z"/>
	</g>
	<g>
		<path class="st7" d="M52.85,112.39H24.57c-0.78,0-1.42-0.63-1.42-1.42v-2.83c0-0.78,0.63-1.42,1.42-1.42h28.28
			c0.78,0,1.42,0.63,1.42,1.42v2.83C54.27,111.76,53.63,112.39,52.85,112.39z"/>
	</g>
</g>
<g>
	<path class="st9" d="M91.72,114.3c-0.07,0-0.15,0-0.22-0.01c-1.15-0.07-2.19-0.71-2.78-1.69L76.39,92.05c-1-1.66-0.46-3.81,1.2-4.8
		c1.66-1,3.81-0.46,4.8,1.2l9.72,16.2l27-34.37c1.19-1.52,3.4-1.78,4.91-0.59c1.52,1.19,1.78,3.39,0.59,4.91l-30.14,38.36
		C93.81,113.81,92.79,114.3,91.72,114.3z"/>
</g>
</svg>
