<?xml version="1.0" encoding="utf-8"?>
<!-- Generator: Adobe Illustrator 26.2.1, SVG Export Plug-In . SVG Version: 6.00 Build 0)  -->
<svg version="1.1" id="Ebene_1" xmlns="http://www.w3.org/2000/svg" xmlns:xlink="http://www.w3.org/1999/xlink" x="0px" y="0px"
	 viewBox="0 0 141.73 141.73" style="enable-background:new 0 0 141.73 141.73;" xml:space="preserve">
<style type="text/css">
	.st0{fill:#808080;}
	.st1{fill:#B9D25F;stroke:#023D6B;stroke-width:2;stroke-miterlimit:10;}
	.st2{fill:#FAEB5A;stroke:#023D6B;stroke-width:2;stroke-miterlimit:10;}
	.st3{fill:#FAB45A;stroke:#023D6B;stroke-width:2;stroke-miterlimit:10;}
	.st4{fill:#FAB45A;}
	.st5{fill:#FF1D25;}
	.st6{fill:#8C0000;}
	.st7{fill:#FFFFFF;}
	.st8{fill:none;stroke:#7AC943;stroke-width:7;stroke-linecap:round;stroke-linejoin:round;stroke-miterlimit:10;}
	.st9{fill:#7AC943;}
	.st10{fill:#7AC943;stroke:#7AC943;stroke-miterlimit:10;}
	.st11{fill:#B9D25F;}
</style>
<g>
	<path class="st0" d="M121.89,18H19.84c-3.13,0-5.67,2.54-5.67,5.67v17.01c0,3.13,2.54,5.67,5.67,5.67h102.05
		c3.13,0,5.67-2.54,5.67-5.67V23.67C127.56,20.54,125.02,18,121.89,18z M54.27,33.59c0,0.78-0.64,1.42-1.42,1.42H24.57
		c-0.78,0-1.41-0.64-1.41-1.42v-2.83c0-0.79,0.63-1.42,1.41-1.42h28.28c0.78,0,1.42,0.63,1.42,1.42V33.59z"/>
	<path class="st0" d="M19.84,56.69c-3.13,0-5.67,2.54-5.67,5.67v17.01c0,3.13,2.54,5.67,5.67,5.67h40.05
		c1.55-11.74,8.05-21.91,17.34-28.35H19.84z M54.27,73.59c0,0.78-0.64,1.42-1.42,1.42H24.57c-0.78,0-1.41-0.64-1.41-1.42v-2.83
		c0-0.79,0.63-1.42,1.41-1.42h28.28c0.78,0,1.42,0.63,1.42,1.42V73.59z"/>
	<path class="st0" d="M59.82,95.39H19.84c-3.13,0-5.67,2.53-5.67,5.66v17.01c0,3.13,2.54,5.67,5.67,5.67h56.63
		C67.45,117.17,61.21,107.03,59.82,95.39z M54.27,110.98c0,0.78-0.64,1.41-1.42,1.41H24.57c-0.78,0-1.41-0.63-1.41-1.41v-2.84
		c0-0.78,0.63-1.42,1.41-1.42h28.28c0.78,0,1.42,0.64,1.42,1.42V110.98z"/>
</g>
<g>
	<path class="st10" d="M95.18,115.88c0-3.28,2.28-5.65,5.37-5.65c3.28,0,5.37,2.37,5.37,5.65c0,3.19-2.09,5.64-5.37,5.64
		C97.36,121.52,95.18,119.06,95.18,115.88z M97.36,99.76l-1.09-37.33c-0.05-1.8,1.39-3.28,3.19-3.28h2.18c1.8,0,3.24,1.48,3.19,3.28
		l-1.09,37.33c-0.05,1.72-1.46,3.09-3.19,3.09h0C98.83,102.86,97.42,101.49,97.36,99.76z"/>
</g>
</svg>
