<?xml version="1.0" encoding="utf-8"?>
<!-- Generator: Adobe Illustrator 26.2.1, SVG Export Plug-In . SVG Version: 6.00 Build 0)  -->
<svg version="1.1" id="Ebene_1" xmlns="http://www.w3.org/2000/svg" xmlns:xlink="http://www.w3.org/1999/xlink" x="0px" y="0px"
	 viewBox="0 0 141.73 141.73" style="enable-background:new 0 0 141.73 141.73;" xml:space="preserve">
<style type="text/css">
	.st0{fill:#808080;}
	.st1{fill:#B9D25F;stroke:#023D6B;stroke-width:2;stroke-miterlimit:10;}
	.st2{fill:#FAEB5A;stroke:#023D6B;stroke-width:2;stroke-miterlimit:10;}
	.st3{fill:#FAB45A;stroke:#023D6B;stroke-width:2;stroke-miterlimit:10;}
	.st4{fill:#FAB45A;}
	.st5{fill:#FF1D25;}
	.st6{fill:#8C0000;}
	.st7{fill:#FFFFFF;}
	.st8{fill:none;stroke:#7AC943;stroke-width:7;stroke-linecap:round;stroke-linejoin:round;stroke-miterlimit:10;}
	.st9{fill:#7AC943;}
	.st10{fill:#7AC943;stroke:#7AC943;stroke-miterlimit:10;}
	.st11{fill:#B9D25F;}
</style>
<path class="st0" d="M121.89,18H19.84c-3.13,0-5.67,2.54-5.67,5.67v17.01c0,3.13,2.54,5.67,5.67,5.67h102.05
	c3.13,0,5.67-2.54,5.67-5.67V23.67C127.56,20.54,125.02,18,121.89,18z M54.27,33.59c0,0.78-0.64,1.42-1.42,1.42H24.57
	c-0.78,0-1.42-0.64-1.42-1.42v-2.83c0-0.79,0.64-1.42,1.42-1.42h28.28c0.78,0,1.42,0.63,1.42,1.42V33.59z"/>
<path class="st0" d="M19.84,56.69c-3.13,0-5.67,2.54-5.67,5.67v17.01c0,3.13,2.54,5.67,5.67,5.67h40.05
	c1.55-11.74,8.05-21.91,17.34-28.35H19.84z M54.27,73.59c0,0.78-0.64,1.42-1.42,1.42H24.57c-0.78,0-1.42-0.64-1.42-1.42v-2.83
	c0-0.79,0.64-1.42,1.42-1.42h28.28c0.78,0,1.42,0.63,1.42,1.42V73.59z"/>
<path class="st0" d="M59.82,95.39H19.84c-3.13,0-5.67,2.53-5.67,5.66v17.01c0,3.13,2.54,5.67,5.67,5.67h56.63
	C67.45,117.17,61.21,107.03,59.82,95.39z M54.27,110.98c0,0.78-0.64,1.41-1.42,1.41H24.57c-0.78,0-1.42-0.63-1.42-1.41v-2.84
	c0-0.78,0.64-1.42,1.42-1.42h28.28c0.78,0,1.42,0.64,1.42,1.42V110.98z"/>
<path class="st11" d="M131.62,100.97c0.83-2.46,1.38-5.03,1.6-7.69l-5.3-2.57c0.01-0.86-0.02-1.73-0.1-2.6
	c-0.02-0.3-0.06-0.6-0.1-0.9l4.99-3.15c-0.52-2.62-1.34-5.12-2.44-7.46l-5.89,0.43c-0.57-1.02-1.22-2-1.92-2.93l2.74-5.22
	c-1.73-1.97-3.7-3.73-5.85-5.24l-4.89,3.31c-1-0.59-2.04-1.12-3.12-1.58l-0.23-5.89c-2.46-0.83-5.04-1.38-7.69-1.61l-2.57,5.31
	c-0.86-0.01-1.72,0.03-2.59,0.1c-0.3,0.03-0.6,0.06-0.9,0.1l-3.15-5c-2.62,0.52-5.12,1.35-7.47,2.44l0.43,5.89
	c-1.02,0.58-2,1.22-2.93,1.92l-5.22-2.74c-1.97,1.74-3.73,3.7-5.23,5.86l3.32,4.88c-0.59,1-1.13,2.04-1.59,3.12L69.63,80
	c-0.83,2.46-1.37,5.03-1.6,7.69l5.31,2.57c-0.01,0.86,0.02,1.73,0.1,2.6c0.03,0.3,0.06,0.59,0.1,0.89l-4.99,3.15
	c0.53,2.62,1.35,5.12,2.44,7.46l5.89-0.43c0.58,1.02,1.22,2,1.92,2.93l-2.74,5.22c1.73,1.98,3.7,3.73,5.85,5.24l4.88-3.31
	c1,0.6,2.05,1.13,3.12,1.59l0.23,5.89c2.46,0.83,5.03,1.38,7.69,1.6l2.58-5.31c0.86,0.01,1.72-0.02,2.6-0.1
	c0.3-0.02,0.6-0.07,0.89-0.1l3.15,5c2.63-0.52,5.12-1.35,7.47-2.44l-0.43-5.9c1.02-0.58,1.99-1.22,2.93-1.92l5.22,2.74
	c1.97-1.74,3.73-3.7,5.23-5.85l-3.31-4.88c0.59-1,1.12-2.05,1.59-3.12L131.62,100.97z M100.63,109.72
	c-10.61,0-19.24-8.63-19.24-19.23c0-10.61,8.63-19.23,19.24-19.23c10.61,0,19.23,8.63,19.23,19.23
	C119.86,101.09,111.24,109.72,100.63,109.72z"/>
</svg>
